<svg width="90" height="76" viewBox="0 0 90 76" fill="none" xmlns="http://www.w3.org/2000/svg">
<path d="M86.0983 49.1854C86.0966 49.1821 86.0933 49.177 86.0899 49.1737C86.0899 49.172 86.0899 49.1703 86.0882 49.1686C85.6686 48.374 84.8359 47.8347 83.8778 47.833L63.0479 47.8028L35.881 10.7671C35.371 9.96238 34.5868 8.88382 33.4432 7.7935C33.4432 7.7935 32.2694 6.67294 31.0355 5.90853C28.489 4.32933 22.3327 4.67541 17.3634 8.00686C12.8423 11.0376 8.71577 15.9617 5.74293 21.8736C2.77008 27.7855 1.27363 34.0452 1.52778 39.4985C1.807 45.4726 4.13779 49.8692 8.09211 51.8768C8.10381 51.8818 8.11384 51.8886 8.12555 51.8936C8.12555 51.8936 8.14227 51.902 8.16066 51.9087C9.56348 52.5102 12.0414 52.6496 12.0414 52.6496C13.2453 52.7168 14.2886 52.7521 15.1279 52.7722C30.2563 52.7941 45.383 52.8176 60.5114 52.8394C64.4875 58.2591 68.4619 63.6772 72.4379 69.0968C72.7773 69.6008 73.3642 70.2796 74.2403 70.4576C74.2403 70.4576 74.5296 70.5164 74.8389 70.4963C82.7258 69.9839 86.3976 63.0623 86.3976 63.0623C90.0944 56.1255 86.2621 49.466 86.0983 49.1854ZM19.119 45.649C15.7867 47.8834 12.5915 48.5134 10.3543 47.3778C8.11719 46.2421 6.72607 43.2836 6.53881 39.2633C6.32479 34.6635 7.6323 29.2942 10.2206 24.1467C12.8089 18.9991 16.3335 14.7554 20.1473 12.2001C23.4797 9.96574 26.6732 9.33574 28.912 10.4714C31.1492 11.6071 32.5386 14.5656 32.7276 18.5858C32.9416 23.1857 31.6341 28.555 29.0458 33.7025C26.4575 38.8517 22.9312 43.0937 19.119 45.649ZM24.6267 47.7457C28.0677 44.7519 31.1592 40.6762 33.5218 35.9756C35.8994 31.2464 37.334 26.2971 37.6817 21.714L56.8113 47.7927L24.6267 47.7457ZM81.9751 60.6834C80.3516 63.7292 77.5075 64.8431 75.8438 65.2446L70.3312 57.7316L66.748 52.8478L82.2944 52.8714C82.9064 54.4707 83.6438 57.5502 81.9751 60.6834Z" fill="url(#paint0_linear_299_371)"/>
<defs>
<linearGradient id="paint0_linear_299_371" x1="-2.00073" y1="23.7495" x2="56.9994" y2="82.7496" gradientUnits="userSpaceOnUse">
<stop stop-color="#D9E021"/>
<stop offset="1" stop-color="#66CCFF"/>
</linearGradient>
</defs>
</svg>
