<svg width="639" height="585" viewBox="0 0 639 585" fill="none" xmlns="http://www.w3.org/2000/svg">
<path d="M396.154 31.7728L132.047 95.3213L55.0816 356.013L242.21 553.159L506.318 489.61L583.283 228.919L396.154 31.7728Z" fill="url(#paint0_linear_209_287)"/>
<path d="M279.273 16.3794C264.798 22.5631 260.275 44.4571 269.171 65.2809C278.067 86.1047 297.012 97.9728 311.488 91.7891C325.963 85.6053 330.485 63.7114 321.59 42.8876C312.694 22.0638 293.748 10.1956 279.273 16.3794Z" fill="white"/>
<path d="M215.826 43.4905C201.351 49.6742 196.828 71.5682 205.724 92.392C214.62 113.216 233.566 125.084 248.041 118.9C262.516 112.716 267.039 90.8225 258.143 69.9987C249.247 49.1749 230.301 37.3067 215.826 43.4905Z" fill="white"/>
<path d="M306.897 35.8491C299.448 36.1534 293.655 42.4393 293.96 49.8889C294.264 57.3385 300.55 63.1309 308 62.8266C315.449 62.5223 321.242 56.2364 320.937 48.7868C320.633 41.3372 314.347 35.5448 306.897 35.8491Z" fill="#333333"/>
<path d="M241.932 62.5231C234.482 62.8274 228.69 69.1132 228.994 76.5629C229.299 84.0125 235.585 89.8049 243.034 89.5006C250.484 89.1962 256.276 82.9104 255.972 75.4608C255.668 68.0112 249.382 62.2187 241.932 62.5231Z" fill="#333333"/>
<defs>
<linearGradient id="paint0_linear_209_287" x1="264.101" y1="63.547" x2="374.264" y2="521.384" gradientUnits="userSpaceOnUse">
<stop stop-color="#98FFF1"/>
<stop offset="1" stop-color="#F6E955"/>
</linearGradient>
</defs>
</svg>
